<?xml version="1.0" encoding="UTF-8"?>
<!DOCTYPE svg PUBLIC "-//W3C//DTD SVG 1.1//EN" "http://www.w3.org/Graphics/SVG/1.1/DTD/svg11.dtd">
<svg width="160mm" height="90mm" viewBox="0 0 16000 9000" version="1.1" xmlns="http://www.w3.org/2000/svg" xmlns:xlink="http://www.w3.org/1999/xlink" stroke-width="28.222" stroke-linejoin="round" xml:space="preserve">
 <path fill="rgb(102,102,102)" stroke="none" d="M 7990,8989 L -10,8989 -10,-10 15989,-10 15989,8989 7990,8989 Z "/>
 <path fill="none" stroke="rgb(179,179,179)" stroke-linejoin="round" d="M 9128,6144 L 2587,6144 2587,368 15669,368 15669,6144 9128,6144 Z "/>
 <path fill="none" stroke="rgb(179,179,179)" stroke-linejoin="round" d="M 15669,6143 L 2587,6143 "/>
 <path fill="none" stroke="rgb(179,179,179)" stroke-linejoin="round" d="M 15669,5565 L 2587,5565 "/>
 <path fill="none" stroke="rgb(179,179,179)" stroke-linejoin="round" d="M 15669,4987 L 2587,4987 "/>
 <path fill="none" stroke="rgb(179,179,179)" stroke-linejoin="round" d="M 15669,4410 L 2587,4410 "/>
 <path fill="none" stroke="rgb(179,179,179)" stroke-linejoin="round" d="M 15669,3833 L 2587,3833 "/>
 <path fill="none" stroke="rgb(179,179,179)" stroke-linejoin="round" d="M 15669,3255 L 2587,3255 "/>
 <path fill="none" stroke="rgb(179,179,179)" stroke-linejoin="round" d="M 15669,2677 L 2587,2677 "/>
 <path fill="none" stroke="rgb(179,179,179)" stroke-linejoin="round" d="M 15669,2100 L 2587,2100 "/>
 <path fill="none" stroke="rgb(179,179,179)" stroke-linejoin="round" d="M 15669,1522 L 2587,1522 "/>
 <path fill="none" stroke="rgb(179,179,179)" stroke-linejoin="round" d="M 15669,944 L 2587,944 "/>
 <path fill="none" stroke="rgb(179,179,179)" stroke-linejoin="round" d="M 15669,367 L 2587,367 "/>
 <path fill="none" stroke="rgb(179,179,179)" stroke-linejoin="round" d="M 2587,6293 L 2587,6143 "/>
 <path fill="none" stroke="rgb(179,179,179)" stroke-linejoin="round" d="M 2587,6293 L 2587,6143 "/>
 <path fill="none" stroke="rgb(179,179,179)" stroke-linejoin="round" d="M 3071,6293 L 3071,6143 "/>
 <path fill="none" stroke="rgb(179,179,179)" stroke-linejoin="round" d="M 3071,6293 L 3071,6143 "/>
 <path fill="none" stroke="rgb(179,179,179)" stroke-linejoin="round" d="M 3556,6293 L 3556,6143 "/>
 <path fill="none" stroke="rgb(179,179,179)" stroke-linejoin="round" d="M 3556,6293 L 3556,6143 "/>
 <path fill="none" stroke="rgb(179,179,179)" stroke-linejoin="round" d="M 4040,6293 L 4040,6143 "/>
 <path fill="none" stroke="rgb(179,179,179)" stroke-linejoin="round" d="M 4040,6293 L 4040,6143 "/>
 <path fill="none" stroke="rgb(179,179,179)" stroke-linejoin="round" d="M 4525,6293 L 4525,6143 "/>
 <path fill="none" stroke="rgb(179,179,179)" stroke-linejoin="round" d="M 4525,6293 L 4525,6143 "/>
 <path fill="none" stroke="rgb(179,179,179)" stroke-linejoin="round" d="M 5009,6293 L 5009,6143 "/>
 <path fill="none" stroke="rgb(179,179,179)" stroke-linejoin="round" d="M 5009,6293 L 5009,6143 "/>
 <path fill="none" stroke="rgb(179,179,179)" stroke-linejoin="round" d="M 5494,6293 L 5494,6143 "/>
 <path fill="none" stroke="rgb(179,179,179)" stroke-linejoin="round" d="M 5494,6293 L 5494,6143 "/>
 <path fill="none" stroke="rgb(179,179,179)" stroke-linejoin="round" d="M 5978,6293 L 5978,6143 "/>
 <path fill="none" stroke="rgb(179,179,179)" stroke-linejoin="round" d="M 5978,6293 L 5978,6143 "/>
 <path fill="none" stroke="rgb(179,179,179)" stroke-linejoin="round" d="M 6463,6293 L 6463,6143 "/>
 <path fill="none" stroke="rgb(179,179,179)" stroke-linejoin="round" d="M 6463,6293 L 6463,6143 "/>
 <path fill="none" stroke="rgb(179,179,179)" stroke-linejoin="round" d="M 6948,6293 L 6948,6143 "/>
 <path fill="none" stroke="rgb(179,179,179)" stroke-linejoin="round" d="M 6948,6293 L 6948,6143 "/>
 <path fill="none" stroke="rgb(179,179,179)" stroke-linejoin="round" d="M 7432,6293 L 7432,6143 "/>
 <path fill="none" stroke="rgb(179,179,179)" stroke-linejoin="round" d="M 7432,6293 L 7432,6143 "/>
 <path fill="none" stroke="rgb(179,179,179)" stroke-linejoin="round" d="M 7917,6293 L 7917,6143 "/>
 <path fill="none" stroke="rgb(179,179,179)" stroke-linejoin="round" d="M 7917,6293 L 7917,6143 "/>
 <path fill="none" stroke="rgb(179,179,179)" stroke-linejoin="round" d="M 8400,6293 L 8400,6143 "/>
 <path fill="none" stroke="rgb(179,179,179)" stroke-linejoin="round" d="M 8400,6293 L 8400,6143 "/>
 <path fill="none" stroke="rgb(179,179,179)" stroke-linejoin="round" d="M 8885,6293 L 8885,6143 "/>
 <path fill="none" stroke="rgb(179,179,179)" stroke-linejoin="round" d="M 8885,6293 L 8885,6143 "/>
 <path fill="none" stroke="rgb(179,179,179)" stroke-linejoin="round" d="M 9369,6293 L 9369,6143 "/>
 <path fill="none" stroke="rgb(179,179,179)" stroke-linejoin="round" d="M 9369,6293 L 9369,6143 "/>
 <path fill="none" stroke="rgb(179,179,179)" stroke-linejoin="round" d="M 9854,6293 L 9854,6143 "/>
 <path fill="none" stroke="rgb(179,179,179)" stroke-linejoin="round" d="M 9854,6293 L 9854,6143 "/>
 <path fill="none" stroke="rgb(179,179,179)" stroke-linejoin="round" d="M 10338,6293 L 10338,6143 "/>
 <path fill="none" stroke="rgb(179,179,179)" stroke-linejoin="round" d="M 10338,6293 L 10338,6143 "/>
 <path fill="none" stroke="rgb(179,179,179)" stroke-linejoin="round" d="M 10823,6293 L 10823,6143 "/>
 <path fill="none" stroke="rgb(179,179,179)" stroke-linejoin="round" d="M 10823,6293 L 10823,6143 "/>
 <path fill="none" stroke="rgb(179,179,179)" stroke-linejoin="round" d="M 11308,6293 L 11308,6143 "/>
 <path fill="none" stroke="rgb(179,179,179)" stroke-linejoin="round" d="M 11308,6293 L 11308,6143 "/>
 <path fill="none" stroke="rgb(179,179,179)" stroke-linejoin="round" d="M 11792,6293 L 11792,6143 "/>
 <path fill="none" stroke="rgb(179,179,179)" stroke-linejoin="round" d="M 11792,6293 L 11792,6143 "/>
 <path fill="none" stroke="rgb(179,179,179)" stroke-linejoin="round" d="M 12277,6293 L 12277,6143 "/>
 <path fill="none" stroke="rgb(179,179,179)" stroke-linejoin="round" d="M 12277,6293 L 12277,6143 "/>
 <path fill="none" stroke="rgb(179,179,179)" stroke-linejoin="round" d="M 12761,6293 L 12761,6143 "/>
 <path fill="none" stroke="rgb(179,179,179)" stroke-linejoin="round" d="M 12761,6293 L 12761,6143 "/>
 <path fill="none" stroke="rgb(179,179,179)" stroke-linejoin="round" d="M 13246,6293 L 13246,6143 "/>
 <path fill="none" stroke="rgb(179,179,179)" stroke-linejoin="round" d="M 13246,6293 L 13246,6143 "/>
 <path fill="none" stroke="rgb(179,179,179)" stroke-linejoin="round" d="M 13730,6293 L 13730,6143 "/>
 <path fill="none" stroke="rgb(179,179,179)" stroke-linejoin="round" d="M 13730,6293 L 13730,6143 "/>
 <path fill="none" stroke="rgb(179,179,179)" stroke-linejoin="round" d="M 14215,6293 L 14215,6143 "/>
 <path fill="none" stroke="rgb(179,179,179)" stroke-linejoin="round" d="M 14215,6293 L 14215,6143 "/>
 <path fill="none" stroke="rgb(179,179,179)" stroke-linejoin="round" d="M 14699,6293 L 14699,6143 "/>
 <path fill="none" stroke="rgb(179,179,179)" stroke-linejoin="round" d="M 14699,6293 L 14699,6143 "/>
 <path fill="none" stroke="rgb(179,179,179)" stroke-linejoin="round" d="M 15184,6293 L 15184,6143 "/>
 <path fill="none" stroke="rgb(179,179,179)" stroke-linejoin="round" d="M 15184,6293 L 15184,6143 "/>
 <path fill="none" stroke="rgb(179,179,179)" stroke-linejoin="round" d="M 15669,6293 L 15669,6143 "/>
 <path fill="none" stroke="rgb(179,179,179)" stroke-linejoin="round" d="M 15669,6293 L 15669,6143 "/>
 <path fill="none" stroke="rgb(179,179,179)" stroke-linejoin="round" d="M 2587,6143 L 15669,6143 "/>
 <path fill="none" stroke="rgb(179,179,179)" stroke-linejoin="round" d="M 2437,6143 L 2587,6143 "/>
 <path fill="none" stroke="rgb(179,179,179)" stroke-linejoin="round" d="M 2437,6143 L 2587,6143 "/>
 <path fill="none" stroke="rgb(179,179,179)" stroke-linejoin="round" d="M 2437,5565 L 2587,5565 "/>
 <path fill="none" stroke="rgb(179,179,179)" stroke-linejoin="round" d="M 2437,5565 L 2587,5565 "/>
 <path fill="none" stroke="rgb(179,179,179)" stroke-linejoin="round" d="M 2437,4987 L 2587,4987 "/>
 <path fill="none" stroke="rgb(179,179,179)" stroke-linejoin="round" d="M 2437,4987 L 2587,4987 "/>
 <path fill="none" stroke="rgb(179,179,179)" stroke-linejoin="round" d="M 2437,4410 L 2587,4410 "/>
 <path fill="none" stroke="rgb(179,179,179)" stroke-linejoin="round" d="M 2437,4410 L 2587,4410 "/>
 <path fill="none" stroke="rgb(179,179,179)" stroke-linejoin="round" d="M 2437,3833 L 2587,3833 "/>
 <path fill="none" stroke="rgb(179,179,179)" stroke-linejoin="round" d="M 2437,3833 L 2587,3833 "/>
 <path fill="none" stroke="rgb(179,179,179)" stroke-linejoin="round" d="M 2437,3255 L 2587,3255 "/>
 <path fill="none" stroke="rgb(179,179,179)" stroke-linejoin="round" d="M 2437,3255 L 2587,3255 "/>
 <path fill="none" stroke="rgb(179,179,179)" stroke-linejoin="round" d="M 2437,2677 L 2587,2677 "/>
 <path fill="none" stroke="rgb(179,179,179)" stroke-linejoin="round" d="M 2437,2677 L 2587,2677 "/>
 <path fill="none" stroke="rgb(179,179,179)" stroke-linejoin="round" d="M 2437,2100 L 2587,2100 "/>
 <path fill="none" stroke="rgb(179,179,179)" stroke-linejoin="round" d="M 2437,2100 L 2587,2100 "/>
 <path fill="none" stroke="rgb(179,179,179)" stroke-linejoin="round" d="M 2437,1522 L 2587,1522 "/>
 <path fill="none" stroke="rgb(179,179,179)" stroke-linejoin="round" d="M 2437,1522 L 2587,1522 "/>
 <path fill="none" stroke="rgb(179,179,179)" stroke-linejoin="round" d="M 2437,944 L 2587,944 "/>
 <path fill="none" stroke="rgb(179,179,179)" stroke-linejoin="round" d="M 2437,944 L 2587,944 "/>
 <path fill="none" stroke="rgb(179,179,179)" stroke-linejoin="round" d="M 2437,367 L 2587,367 "/>
 <path fill="none" stroke="rgb(179,179,179)" stroke-linejoin="round" d="M 2437,367 L 2587,367 "/>
 <path fill="none" stroke="rgb(179,179,179)" stroke-linejoin="round" d="M 2587,6143 L 2587,367 "/>
 <path fill="none" stroke="rgb(0,69,134)" stroke-width="80" stroke-linejoin="round" d="M 3071,4410 L 3556,4987 4040,4658 4525,4508 5009,4583 5494,4548 5978,5449 6463,5276 6947,5565 7432,5449 7917,5334 8400,4987 8885,5854 9369,5911 9854,5871 10338,5969 10823,5738 11307,5854 11792,5871 12277,4987 12761,1233 13246,1083 13730,829 14215,956 14699,875 15184,2100 "/>
 <text class="SVGTextShape" transform="rotate(-44.9 537 8755)"><tspan class="TextParagraph"><tspan class="TextPosition" x="537" y="8755"><tspan font-family="Arial, sans-serif" font-size="353px" font-weight="400" lengthAdjust="spacingAndGlyphs" textLength="3020" fill="rgb(0,0,0)" stroke="none" style="white-space: pre">05/12/25 07:45 PM</tspan></tspan></tspan></text>
 <text class="SVGTextShape" transform="rotate(-44.9 1506 8755)"><tspan class="TextParagraph"><tspan class="TextPosition" x="1506" y="8755"><tspan font-family="Arial, sans-serif" font-size="353px" font-weight="400" lengthAdjust="spacingAndGlyphs" textLength="3020" fill="rgb(0,0,0)" stroke="none" style="white-space: pre">05/12/25 08:15 PM</tspan></tspan></tspan></text>
 <text class="SVGTextShape" transform="rotate(-44.9 2475 8755)"><tspan class="TextParagraph"><tspan class="TextPosition" x="2475" y="8755"><tspan font-family="Arial, sans-serif" font-size="353px" font-weight="400" lengthAdjust="spacingAndGlyphs" textLength="3020" fill="rgb(0,0,0)" stroke="none" style="white-space: pre">05/12/25 08:45 PM</tspan></tspan></tspan></text>
 <text class="SVGTextShape" transform="rotate(-44.9 3444 8755)"><tspan class="TextParagraph"><tspan class="TextPosition" x="3444" y="8755"><tspan font-family="Arial, sans-serif" font-size="353px" font-weight="400" lengthAdjust="spacingAndGlyphs" textLength="3020" fill="rgb(0,0,0)" stroke="none" style="white-space: pre">05/12/25 09:15 PM</tspan></tspan></tspan></text>
 <text class="SVGTextShape" transform="rotate(-44.9 4413 8755)"><tspan class="TextParagraph"><tspan class="TextPosition" x="4413" y="8755"><tspan font-family="Arial, sans-serif" font-size="353px" font-weight="400" lengthAdjust="spacingAndGlyphs" textLength="3020" fill="rgb(0,0,0)" stroke="none" style="white-space: pre">05/12/25 09:45 PM</tspan></tspan></tspan></text>
 <text class="SVGTextShape" transform="rotate(-44.9 5382 8755)"><tspan class="TextParagraph"><tspan class="TextPosition" x="5382" y="8755"><tspan font-family="Arial, sans-serif" font-size="353px" font-weight="400" lengthAdjust="spacingAndGlyphs" textLength="3020" fill="rgb(0,0,0)" stroke="none" style="white-space: pre">05/12/25 10:15 PM</tspan></tspan></tspan></text>
 <text class="SVGTextShape" transform="rotate(-44.9 6351 8755)"><tspan class="TextParagraph"><tspan class="TextPosition" x="6351" y="8755"><tspan font-family="Arial, sans-serif" font-size="353px" font-weight="400" lengthAdjust="spacingAndGlyphs" textLength="3020" fill="rgb(0,0,0)" stroke="none" style="white-space: pre">05/12/25 10:45 PM</tspan></tspan></tspan></text>
 <text class="SVGTextShape" transform="rotate(-44.9 7320 8755)"><tspan class="TextParagraph"><tspan class="TextPosition" x="7320" y="8755"><tspan font-family="Arial, sans-serif" font-size="353px" font-weight="400" lengthAdjust="spacingAndGlyphs" textLength="3020" fill="rgb(0,0,0)" stroke="none" style="white-space: pre">05/12/25 11:15 PM</tspan></tspan></tspan></text>
 <text class="SVGTextShape" transform="rotate(-44.9 8288 8755)"><tspan class="TextParagraph"><tspan class="TextPosition" x="8288" y="8755"><tspan font-family="Arial, sans-serif" font-size="353px" font-weight="400" lengthAdjust="spacingAndGlyphs" textLength="3020" fill="rgb(0,0,0)" stroke="none" style="white-space: pre">05/12/25 11:45 PM</tspan></tspan></tspan></text>
 <text class="SVGTextShape" transform="rotate(-44.9 9258 8755)"><tspan class="TextParagraph"><tspan class="TextPosition" x="9258" y="8755"><tspan font-family="Arial, sans-serif" font-size="353px" font-weight="400" lengthAdjust="spacingAndGlyphs" textLength="3020" fill="rgb(0,0,0)" stroke="none" style="white-space: pre">06/12/25 12:15 AM</tspan></tspan></tspan></text>
 <text class="SVGTextShape" transform="rotate(-44.9 10227 8755)"><tspan class="TextParagraph"><tspan class="TextPosition" x="10227" y="8755"><tspan font-family="Arial, sans-serif" font-size="353px" font-weight="400" lengthAdjust="spacingAndGlyphs" textLength="3020" fill="rgb(0,0,0)" stroke="none" style="white-space: pre">06/12/25 12:45 AM</tspan></tspan></tspan></text>
 <text class="SVGTextShape" transform="rotate(-44.9 11196 8755)"><tspan class="TextParagraph"><tspan class="TextPosition" x="11196" y="8755"><tspan font-family="Arial, sans-serif" font-size="353px" font-weight="400" lengthAdjust="spacingAndGlyphs" textLength="3020" fill="rgb(0,0,0)" stroke="none" style="white-space: pre">06/12/25 01:15 AM</tspan></tspan></tspan></text>
 <text class="SVGTextShape" transform="rotate(-44.9 12165 8755)"><tspan class="TextParagraph"><tspan class="TextPosition" x="12165" y="8755"><tspan font-family="Arial, sans-serif" font-size="353px" font-weight="400" lengthAdjust="spacingAndGlyphs" textLength="3020" fill="rgb(0,0,0)" stroke="none" style="white-space: pre">06/12/25 01:45 AM</tspan></tspan></tspan></text>
 <text class="SVGTextShape" transform="rotate(-44.9 13134 8755)"><tspan class="TextParagraph"><tspan class="TextPosition" x="13134" y="8755"><tspan font-family="Arial, sans-serif" font-size="353px" font-weight="400" lengthAdjust="spacingAndGlyphs" textLength="3020" fill="rgb(0,0,0)" stroke="none" style="white-space: pre">06/12/25 02:15 AM</tspan></tspan></tspan></text>
 <text class="SVGTextShape"><tspan class="TextParagraph"><tspan class="TextPosition" x="1165" y="6267"><tspan font-family="Arial, sans-serif" font-size="353px" font-weight="400" lengthAdjust="spacingAndGlyphs" textLength="1172" fill="rgb(0,0,0)" stroke="none" style="white-space: pre">0 Mbps</tspan></tspan></tspan></text>
 <text class="SVGTextShape"><tspan class="TextParagraph"><tspan class="TextPosition" x="767" y="5689"><tspan font-family="Arial, sans-serif" font-size="353px" font-weight="400" lengthAdjust="spacingAndGlyphs" textLength="1569" fill="rgb(0,0,0)" stroke="none" style="white-space: pre">100 Mbps</tspan></tspan></tspan></text>
 <text class="SVGTextShape"><tspan class="TextParagraph"><tspan class="TextPosition" x="767" y="5111"><tspan font-family="Arial, sans-serif" font-size="353px" font-weight="400" lengthAdjust="spacingAndGlyphs" textLength="1569" fill="rgb(0,0,0)" stroke="none" style="white-space: pre">200 Mbps</tspan></tspan></tspan></text>
 <text class="SVGTextShape"><tspan class="TextParagraph"><tspan class="TextPosition" x="767" y="4533"><tspan font-family="Arial, sans-serif" font-size="353px" font-weight="400" lengthAdjust="spacingAndGlyphs" textLength="1569" fill="rgb(0,0,0)" stroke="none" style="white-space: pre">300 Mbps</tspan></tspan></tspan></text>
 <text class="SVGTextShape"><tspan class="TextParagraph"><tspan class="TextPosition" x="767" y="3957"><tspan font-family="Arial, sans-serif" font-size="353px" font-weight="400" lengthAdjust="spacingAndGlyphs" textLength="1569" fill="rgb(0,0,0)" stroke="none" style="white-space: pre">400 Mbps</tspan></tspan></tspan></text>
 <text class="SVGTextShape"><tspan class="TextParagraph"><tspan class="TextPosition" x="767" y="3379"><tspan font-family="Arial, sans-serif" font-size="353px" font-weight="400" lengthAdjust="spacingAndGlyphs" textLength="1569" fill="rgb(0,0,0)" stroke="none" style="white-space: pre">500 Mbps</tspan></tspan></tspan></text>
 <text class="SVGTextShape"><tspan class="TextParagraph"><tspan class="TextPosition" x="767" y="2801"><tspan font-family="Arial, sans-serif" font-size="353px" font-weight="400" lengthAdjust="spacingAndGlyphs" textLength="1569" fill="rgb(0,0,0)" stroke="none" style="white-space: pre">600 Mbps</tspan></tspan></tspan></text>
 <text class="SVGTextShape"><tspan class="TextParagraph"><tspan class="TextPosition" x="767" y="2224"><tspan font-family="Arial, sans-serif" font-size="353px" font-weight="400" lengthAdjust="spacingAndGlyphs" textLength="1569" fill="rgb(0,0,0)" stroke="none" style="white-space: pre">700 Mbps</tspan></tspan></tspan></text>
 <text class="SVGTextShape"><tspan class="TextParagraph"><tspan class="TextPosition" x="767" y="1646"><tspan font-family="Arial, sans-serif" font-size="353px" font-weight="400" lengthAdjust="spacingAndGlyphs" textLength="1569" fill="rgb(0,0,0)" stroke="none" style="white-space: pre">800 Mbps</tspan></tspan></tspan></text>
 <text class="SVGTextShape"><tspan class="TextParagraph"><tspan class="TextPosition" x="767" y="1068"><tspan font-family="Arial, sans-serif" font-size="353px" font-weight="400" lengthAdjust="spacingAndGlyphs" textLength="1569" fill="rgb(0,0,0)" stroke="none" style="white-space: pre">900 Mbps</tspan></tspan></tspan></text>
 <text class="SVGTextShape"><tspan class="TextParagraph"><tspan class="TextPosition" x="568" y="491"><tspan font-family="Arial, sans-serif" font-size="353px" font-weight="400" lengthAdjust="spacingAndGlyphs" textLength="1768" fill="rgb(0,0,0)" stroke="none" style="white-space: pre">1000 Mbps</tspan></tspan></tspan></text>
</svg>